<svg width="29" height="28" viewBox="0 0 29 28" fill="none" xmlns="http://www.w3.org/2000/svg">
<g id="ChatCentered">
<path id="Vector" d="M16.8734 21.4266L15.2547 24.1281C15.1754 24.2571 15.0644 24.3635 14.9323 24.4374C14.8002 24.5112 14.6514 24.55 14.5 24.55C14.3486 24.55 14.1998 24.5112 14.0677 24.4374C13.9356 24.3635 13.8246 24.2571 13.7453 24.1281L12.1266 21.4266C12.0504 21.2969 11.9418 21.1893 11.8113 21.1145C11.6809 21.0397 11.5332 21.0002 11.3828 21H4.875C4.64294 21 4.42038 20.9078 4.25628 20.7437C4.09219 20.5796 4 20.3571 4 20.125V6.125C4 5.89294 4.09219 5.67038 4.25628 5.50628C4.42038 5.34219 4.64294 5.25 4.875 5.25H24.125C24.3571 5.25 24.5796 5.34219 24.7437 5.50628C24.9078 5.67038 25 5.89294 25 6.125V20.125C25 20.3571 24.9078 20.5796 24.7437 20.7437C24.5796 20.9078 24.3571 21 24.125 21H17.6172C17.4668 21.0002 17.3191 21.0397 17.1887 21.1145C17.0582 21.1893 16.9496 21.2969 16.8734 21.4266V21.4266Z" stroke="black" stroke-opacity="0.8" stroke-width="1.5" stroke-linecap="round" stroke-linejoin="round"/>
</g>
</svg>
