<svg width="20" height="20" viewBox="0 0 20 20" fill="none" xmlns="http://www.w3.org/2000/svg">
<g id="&#240;&#159;&#166;&#134; emoji &#34;crying face&#34;">
<path id="Vector" d="M10.3014 19.0938C5.68525 19.0938 0.705139 16.1983 0.705139 9.84497C0.705139 3.49161 5.68525 0.596191 10.3014 0.596191C12.8659 0.596191 15.2319 1.44 16.9856 2.9787C18.8883 4.66632 19.8976 7.04883 19.8976 9.84497C19.8976 12.6411 18.8883 15.0071 16.9856 16.6947C15.2319 18.2334 12.8493 19.0938 10.3014 19.0938Z" fill="url(#paint0_radial_3518_4097)"/>
<path id="Vector_2" d="M18.2247 4.34695C19.1066 5.76984 19.5666 7.46408 19.5666 9.34858C19.5666 12.1447 18.5573 14.5107 16.6546 16.1983C14.9008 17.737 12.5183 18.5974 9.97033 18.5974C6.98226 18.5974 3.8486 17.3813 1.99884 14.8019C3.77911 17.7238 7.12786 19.0937 10.3012 19.0937C12.8492 19.0937 15.2317 18.2334 16.9855 16.6947C18.8882 15.007 19.8975 12.6411 19.8975 9.84493C19.8975 7.73707 19.3233 5.86415 18.2247 4.34695Z" fill="#EB8F00"/>
<path id="Vector_3" d="M10.3674 12.5749C12.1543 12.5749 13.4117 13.5015 13.7923 14.0805C13.9379 14.2642 13.9693 14.5124 13.875 14.7258C13.8022 14.8598 13.6632 14.9425 13.511 14.9409C13.4547 14.9376 13.3985 14.926 13.3455 14.9078C12.3776 14.6315 11.375 14.4925 10.3674 14.4942C9.36476 14.4875 8.36543 14.6331 7.40581 14.9243C7.35286 14.9425 7.29661 14.9541 7.24035 14.9574C7.08814 14.9624 6.94585 14.8797 6.87636 14.7423C6.7804 14.5289 6.81349 14.2791 6.95909 14.0971C7.32308 13.5015 8.59706 12.5749 10.3674 12.5749Z" fill="#422B0D"/>
<path id="Vector_4" d="M5.90008 16.7277C4.82464 16.7277 3.99738 15.6854 3.99738 14.7919C3.99738 14.1632 4.27864 13.4352 4.67573 12.426C4.72537 12.2771 4.79155 12.1281 4.85773 11.9627C5.08936 11.3638 5.35408 10.7781 5.6519 10.2089C5.71146 10.0947 5.84713 10.0451 5.96626 10.0931C6.01589 10.1179 6.05726 10.1593 6.08207 10.2089C6.33025 10.7218 6.61152 11.3505 6.89279 11.9958C7.58769 13.551 7.78623 14.1798 7.78623 14.8085C7.80278 15.6854 6.95897 16.7277 5.90008 16.7277Z" fill="url(#paint1_radial_3518_4097)"/>
<path id="Vector_5" d="M7.05827 15.5349C6.81506 15.9104 6.2641 15.8393 6.2641 15.2155C6.2641 14.8168 6.34517 12.7685 6.68766 13.0547C7.25019 13.5213 7.40903 15.0038 7.05827 15.5349Z" fill="#81D4FA"/>
<g id="Group">
<path id="Vector_6" d="M4.74206 7.16466C4.53525 7.47074 4.04386 7.27386 4.1878 6.90324C4.52698 6.09749 5.16066 5.45223 5.96145 5.10147C6.2543 4.96249 6.57031 4.8748 6.89294 4.84005C7.05674 4.80696 7.21723 4.91285 7.25032 5.07665C7.28341 5.24045 7.17752 5.40094 7.01207 5.43403H6.99056C6.06734 5.74011 5.27482 6.35063 4.74206 7.16466Z" fill="#422B0D"/>
<path id="Vector_7" d="M15.8753 7.16476C16.0822 7.47085 16.5736 7.27396 16.4296 6.90335C16.0888 6.09594 15.4518 5.45068 14.6477 5.10157C14.3548 4.96259 14.0421 4.8749 13.7195 4.84016C13.5557 4.80707 13.3952 4.91296 13.3638 5.07676C13.3307 5.24055 13.4366 5.40104 13.6004 5.43413H13.6219C14.5468 5.73857 15.3426 6.34908 15.8753 7.16476Z" fill="#422B0D"/>
<path id="Vector_8" d="M7.16926 7.20439C6.47602 7.20439 5.84564 7.79009 5.84564 8.76295C5.84564 9.73581 6.47602 10.3199 7.16926 10.3199C7.86251 10.3199 8.49288 9.73416 8.49288 8.76295C8.49288 7.79175 7.86251 7.20439 7.16926 7.20439Z" fill="#422B0D"/>
</g>
<path id="Vector_9" d="M7.10453 7.85453C6.86959 7.74203 6.58667 7.8413 6.4725 8.07624C6.38481 8.25989 6.42452 8.47994 6.57178 8.62223C6.80672 8.73474 7.08964 8.63547 7.2038 8.40053C7.29149 8.21687 7.25178 7.99682 7.10453 7.85453Z" fill="#896024"/>
<path id="Vector_10" d="M13.5109 7.20433C12.8176 7.20433 12.1873 7.79003 12.1873 8.76289C12.1873 9.73575 12.8176 10.3198 13.5109 10.3198C14.2041 10.3198 14.8345 9.7341 14.8345 8.76289C14.8345 7.79169 14.2074 7.20433 13.5109 7.20433Z" fill="#422B0D"/>
<path id="Vector_11" d="M13.45 7.85453C13.215 7.74203 12.9321 7.8413 12.818 8.07624C12.7303 8.25989 12.77 8.47994 12.9172 8.62223C13.1522 8.73474 13.4351 8.63547 13.5493 8.40053C13.637 8.21687 13.5972 7.99682 13.45 7.85453Z" fill="#896024"/>
</g>
<defs>
<radialGradient id="paint0_radial_3518_4097" cx="0" cy="0" r="1" gradientUnits="userSpaceOnUse" gradientTransform="translate(10.3014 9.84497) scale(9.42411)">
<stop offset="0.5" stop-color="#FDE030"/>
<stop offset="0.92" stop-color="#F7C02B"/>
<stop offset="1" stop-color="#F4A223"/>
</radialGradient>
<radialGradient id="paint1_radial_3518_4097" cx="0" cy="0" r="1" gradientUnits="userSpaceOnUse" gradientTransform="translate(6.03575 10.9192) scale(4.37125 6.73172)">
<stop offset="0.46" stop-color="#29B6F6"/>
<stop offset="1" stop-color="#1E88E5"/>
</radialGradient>
</defs>
</svg>
