<svg width="21" height="20" viewBox="0 0 21 20" fill="none" xmlns="http://www.w3.org/2000/svg">
<g id="&#240;&#159;&#166;&#134; emoji &#34;hugging face&#34;">
<path id="Vector" d="M10.5464 19.8077C5.9757 19.8077 1.04462 16.8006 1.04462 10.202C1.04462 3.60336 5.9757 0.596191 10.5464 0.596191C13.0856 0.596191 15.4283 1.47257 17.1648 3.07066C19.0488 4.82342 20.0481 7.29789 20.0481 10.202C20.0481 13.106 19.0488 15.5633 17.1648 17.3161C15.4283 18.9142 13.0692 19.8077 10.5464 19.8077Z" fill="url(#paint0_radial_3518_3946)"/>
<path id="Vector_2" d="M10.5464 19.8077C5.9757 19.8077 1.04462 16.8006 1.04462 10.202C1.04462 3.60336 5.9757 0.596191 10.5464 0.596191C13.0856 0.596191 15.4283 1.47257 17.1648 3.07066C19.0488 4.82342 20.0481 7.29789 20.0481 10.202C20.0481 13.106 19.0488 15.5633 17.1648 17.3161C15.4283 18.9142 13.0692 19.8077 10.5464 19.8077Z" fill="url(#paint1_linear_3518_3946)"/>
<path id="Vector_3" d="M18.3918 4.49176C19.265 5.96957 19.7204 7.7292 19.7204 9.68644C19.7204 12.5905 18.7211 15.0478 16.8372 16.8005C15.1006 18.3986 12.7416 19.2922 10.2187 19.2922C7.26004 19.2922 4.15068 18.0292 2.32568 15.3502C4.08842 18.3849 7.40257 19.8077 10.5463 19.8077C13.0692 19.8077 15.4283 18.9142 17.1648 17.3161C19.0488 15.5633 20.0481 13.106 20.0481 10.202C20.0481 8.01273 19.4796 6.06752 18.3918 4.49176Z" fill="#EB8F00"/>
<path id="Vector_4" opacity="0.8" d="M4.9924 13.2092C6.46718 13.2092 7.66272 11.9552 7.66272 10.4082C7.66272 8.86129 6.46718 7.60725 4.9924 7.60725C3.51763 7.60725 2.32208 8.86129 2.32208 10.4082C2.32208 11.9552 3.51763 13.2092 4.9924 13.2092Z" fill="url(#paint2_radial_3518_3946)"/>
<path id="Vector_5" opacity="0.8" d="M16.0006 11.0438C17.4754 11.0438 18.6709 9.78976 18.6709 8.24283C18.6709 6.6959 17.4754 5.44186 16.0006 5.44186C14.5258 5.44186 13.3303 6.6959 13.3303 8.24283C13.3303 9.78976 14.5258 11.0438 16.0006 11.0438Z" fill="url(#paint3_radial_3518_3946)"/>
<g id="Group">
<path id="Vector_6" d="M16.0015 7.88195C14.7401 9.10201 13.0691 10.0643 11.136 10.5283C9.20288 10.9922 7.30253 10.9063 5.6643 10.3736C5.36942 10.2705 5.15645 10.6829 5.41856 10.8891C7.07318 12.1779 9.28479 12.7278 11.4964 12.1779C13.708 11.6452 15.4773 10.1502 16.4275 8.22563C16.5913 7.9335 16.2309 7.65856 16.0015 7.88195Z" fill="#422B0D"/>
<path id="Vector_7" d="M8.07396 7.50401C8.07396 7.50401 8.05758 7.48683 8.0412 7.46964C8.02482 7.45246 7.99205 7.43527 7.95929 7.40091C7.92652 7.38372 7.89376 7.34936 7.86099 7.33217C7.82823 7.2978 7.77908 7.26344 7.72994 7.22907C7.68079 7.1947 7.63164 7.16033 7.5825 7.14315C7.53335 7.10878 7.4842 7.0916 7.43505 7.0916C7.38591 7.07441 7.35314 7.07441 7.33676 7.07441C7.32038 7.07441 7.32038 7.07441 7.304 7.07441C7.304 7.07441 7.304 7.07441 7.28761 7.07441H7.32038L7.23847 7.0916C7.23847 7.0916 7.23847 7.0916 7.25485 7.0916H7.23847C7.22208 7.10878 7.18932 7.12597 7.15655 7.14315C7.12379 7.17752 7.07464 7.21189 7.04188 7.24625C7.00911 7.28062 6.97635 7.33217 6.94358 7.38372C6.87805 7.48683 6.82891 7.57275 6.79614 7.64148C6.76338 7.71022 6.73061 7.74458 6.73061 7.74458L6.69785 7.81332C6.53403 8.10544 6.17361 8.22573 5.87873 8.07108C5.68215 7.96797 5.56747 7.77895 5.55109 7.57275C5.55109 7.57275 5.55109 7.50401 5.55109 7.38372C5.56747 7.26344 5.58385 7.0916 5.64938 6.88539C5.71491 6.67919 5.82959 6.42143 6.04256 6.18085C6.15723 6.06057 6.28829 5.9231 6.45211 5.83718C6.48488 5.80281 6.53403 5.78563 6.58317 5.76844C6.63232 5.75126 6.66508 5.71689 6.73061 5.69971L6.81253 5.66534C6.84529 5.64816 6.87805 5.64816 6.89444 5.64816L6.97635 5.63097L7.0255 5.61379H7.05826H7.09103L7.17294 5.5966H7.32038C7.41867 5.5966 7.51697 5.5966 7.61526 5.61379C7.81185 5.64816 7.97567 5.71689 8.12311 5.78563C8.41799 5.94028 8.5982 6.1293 8.74564 6.28396C8.81117 6.36988 8.8767 6.43861 8.90946 6.50735C8.95861 6.57608 8.99137 6.64482 9.02414 6.69637C9.0569 6.74792 9.0569 6.78229 9.07329 6.79947C9.07329 6.81666 9.08967 6.83384 9.08967 6.83384C9.20435 7.14315 9.04052 7.48683 8.71288 7.60711C8.48352 7.69303 8.23779 7.64148 8.07396 7.50401Z" fill="#422B0D"/>
<path id="Vector_8" d="M13.6915 6.35266C13.6915 6.35266 13.6751 6.33548 13.6588 6.31829C13.6424 6.30111 13.6096 6.28393 13.5768 6.24956C13.5441 6.23237 13.5113 6.19801 13.4785 6.18082C13.4458 6.14645 13.3966 6.11209 13.3475 6.07772C13.2983 6.04335 13.2492 6.00898 13.2 5.9918C13.1509 5.95743 13.1018 5.94025 13.0526 5.94025C13.0198 5.92306 12.9871 5.92306 12.9707 5.92306C12.9543 5.92306 12.9543 5.92306 12.9379 5.92306H12.9215H12.9543L12.8724 5.94025C12.856 5.95743 12.8233 5.97462 12.7741 5.9918C12.7413 6.02617 12.7086 6.06054 12.6594 6.0949C12.6267 6.12927 12.5939 6.18082 12.5611 6.23237C12.4956 6.33548 12.4465 6.4214 12.4137 6.49013C12.3809 6.55887 12.3482 6.59323 12.3482 6.59323L12.3154 6.64479C12.1516 6.93691 11.7912 7.0572 11.4963 6.90254C11.2997 6.79944 11.185 6.61042 11.1686 6.40421C11.1686 6.40421 11.1686 6.33548 11.185 6.21519C11.2014 6.0949 11.2178 5.92306 11.2833 5.71686C11.3488 5.51065 11.4635 5.25289 11.6765 5.01232C11.7912 4.89203 11.9222 4.75456 12.0861 4.66864C12.1188 4.65146 12.168 4.61709 12.2171 4.59991C12.2663 4.58272 12.299 4.54836 12.3645 4.53117L12.4628 4.49681C12.4956 4.47962 12.5284 4.47962 12.5448 4.47962L12.6267 4.46244L12.6758 4.44525H12.7086H12.7413L12.8233 4.42807H12.9707C13.069 4.42807 13.1673 4.42807 13.2656 4.44525C13.4622 4.47962 13.626 4.54836 13.7734 4.61709C14.0683 4.77175 14.2485 4.96077 14.396 5.11542C14.4615 5.20134 14.527 5.27008 14.5598 5.33881C14.6089 5.40755 14.6417 5.47628 14.6745 5.52784C14.7072 5.57939 14.7072 5.61376 14.7236 5.63094C14.74 5.64812 14.74 5.66531 14.74 5.66531C14.8547 5.97462 14.6908 6.31829 14.3632 6.43858C14.1011 6.55887 13.8553 6.50732 13.6915 6.35266Z" fill="#422B0D"/>
</g>
<path id="Vector_9" opacity="0.66" d="M6.49434 13.9066C6.31577 13.3773 6.18799 18.859 6.18799 18.859C6.66635 19.0704 7.14963 19.2559 7.65093 19.3968C7.84916 18.9277 8.108 18.0634 7.97202 17.0839C7.7525 15.5184 6.8613 14.9978 6.49434 13.9066Z" fill="url(#paint4_linear_3518_3946)"/>
<path id="Vector_10" d="M6.59785 13.3517C6.51758 13.1232 6.41601 12.9531 6.15881 12.9531C6.04085 12.9531 5.84099 12.984 5.7345 13.1541C5.52481 13.484 5.60672 14.1027 5.76727 14.6405C5.85737 14.9447 5.8328 15.0564 5.8328 15.0564C5.3872 15.0271 4.86952 14.3896 4.35347 13.7538C4.03729 13.3637 3.85381 13.0046 3.54582 12.6059C3.35907 12.3636 3.08548 12.1196 2.76439 12.2434C1.88466 12.5853 2.97244 13.9136 3.24439 14.2779C3.55402 14.6921 3.86037 15.089 3.86037 15.089C3.57204 15.0186 3.39019 14.9378 2.88234 14.3913C2.44821 13.9239 2.12548 13.3208 1.88957 13.0957C1.35387 12.5853 1.02622 12.752 0.883696 13.0922C0.750999 13.4084 0.970522 13.9669 1.1196 14.2281C1.85844 15.5134 2.80207 16.0169 2.80207 16.0169C2.02554 15.9808 1.41285 15.1079 1.16547 14.8433C0.447926 14.0786 0.120279 15.0254 0.511817 15.7111C0.692022 16.0255 0.872228 16.2472 1.20151 16.6029C1.73394 17.1751 2.23524 17.4346 2.23524 17.4346C2.23524 17.4346 2.02063 17.469 1.80438 17.3504C1.51278 17.1906 1.18677 16.95 1.01803 16.8125C0.534752 16.4225 0.0744084 16.7576 0.259529 17.2765C0.474137 17.8762 1.25721 18.3849 1.73066 18.7543C2.65135 19.4692 3.79975 20.0414 4.9629 20.0019C6.2571 19.9589 7.1483 19.0258 7.49888 17.7147C7.70202 16.9517 7.2171 15.7386 7.09424 15.4327C6.68959 14.4429 6.67813 13.5803 6.59785 13.3517Z" fill="url(#paint5_radial_3518_3946)"/>
<path id="Vector_11" d="M3.99621 16.419C4.01914 17.859 4.88085 18.4605 5.54925 18.5928C5.28058 18.1821 5.14133 17.6803 5.15771 17.1837C5.1741 16.6854 5.35758 16.065 5.62953 15.7282C5.90147 15.3914 5.83267 15.0598 5.83267 15.0598C5.83267 15.0598 5.64918 15.0443 5.58038 15.0014C5.36086 14.8604 5.10857 14.747 4.91853 14.5632C4.77928 14.4274 3.97327 14.979 3.99621 16.419Z" fill="url(#paint6_radial_3518_3946)"/>
<path id="Vector_12" d="M1.17553 12.8894C1.04119 12.9805 0.96747 13.1369 0.965832 13.2932C0.962556 13.4496 1.00679 13.606 1.06085 13.7538C1.17553 14.051 1.35573 14.3174 1.54085 14.5734C1.73089 14.8278 1.93567 15.0735 2.14864 15.3106C2.36161 15.5495 2.57949 15.7849 2.80065 16.0203C2.52707 15.8519 2.27314 15.6491 2.03887 15.4258C1.80625 15.2006 1.58508 14.9566 1.39833 14.6851C1.20665 14.4153 1.0543 14.1146 0.954364 13.7916C0.908494 13.63 0.875729 13.4565 0.903579 13.2846C0.923238 13.1145 1.02808 12.9513 1.17553 12.8894Z" fill="url(#paint7_linear_3518_3946)"/>
<path id="Vector_13" d="M0.216919 17.0811C0.22393 17.0157 0.233278 16.9596 0.244963 16.9105C0.228604 16.9643 0.219256 17.0204 0.216919 17.0811Z" fill="url(#paint8_radial_3518_3946)"/>
<path id="Vector_14" d="M0.833047 17.7422C0.715094 17.6237 0.63482 17.524 0.574206 17.4192C0.5054 17.2989 0.466082 17.1717 0.462806 17.0532C0.459529 16.9208 0.470997 16.8229 0.590588 16.7267C0.649564 16.6785 0.815026 16.6957 0.81175 16.694C0.810111 16.6923 0.806835 16.6923 0.805197 16.6906C0.705264 16.6493 0.611885 16.639 0.528335 16.6528C0.528335 16.6528 0.528335 16.6528 0.529973 16.6511L0.528335 16.6528C0.387447 16.6768 0.279324 16.7713 0.23673 16.9105C0.228539 16.9466 0.221986 16.9879 0.217071 17.036C0.215433 17.1099 0.2269 17.1923 0.258027 17.28C0.305536 17.4123 0.382533 17.5412 0.475912 17.6649C0.531612 17.7543 0.597141 17.8385 0.657756 17.9192C0.754411 18.0395 0.852705 18.1581 0.962467 18.2646C1.17708 18.4846 1.41462 18.677 1.66691 18.8454C1.78977 18.9245 3.00534 19.7063 4.07019 19.9211C4.07347 19.9177 2.04042 19.0379 0.833047 17.7422Z" fill="url(#paint9_linear_3518_3946)"/>
<path id="Vector_15" d="M2.29804 17.5273C2.28657 17.5273 2.27347 17.5256 2.26364 17.5205C2.0048 17.407 1.74759 17.2455 1.47565 17.0256C1.22663 16.8176 1.00547 16.5908 0.818714 16.3537C0.713867 16.2265 0.620488 16.0873 0.54513 15.9688L0.522194 15.931C0.445197 15.8055 0.366562 15.6766 0.317415 15.5254C0.253524 15.3467 0.237142 15.1628 0.273183 14.9927C0.314139 14.7882 0.425539 14.649 0.581171 14.5786C0.80397 14.4772 1.05298 14.735 1.03824 14.7281C0.866223 14.6473 0.715506 14.692 0.676188 14.7195C0.586085 14.7848 0.528747 14.8982 0.51728 15.0305C0.509088 15.1491 0.5353 15.2797 0.592638 15.4068C0.641785 15.5185 0.710591 15.6268 0.817076 15.7574C0.908817 15.8811 1.00383 15.9945 1.09721 16.1062C1.2938 16.3382 1.49694 16.5547 1.70008 16.7541C1.87537 16.9242 2.108 17.1459 2.35865 17.3555C2.39469 17.3847 2.40452 17.438 2.37995 17.4792C2.36029 17.5101 2.3308 17.5273 2.29804 17.5273Z" fill="url(#paint10_linear_3518_3946)"/>
<path id="Vector_16" d="M2.87649 16.0461C2.90762 16.01 2.90106 15.9876 2.8683 15.9533C2.6242 15.6938 2.41123 15.4618 2.21792 15.2453C1.99348 14.9961 1.79689 14.7573 1.61669 14.5167C1.43812 14.271 1.25792 14.0063 1.14652 13.7194C1.10392 13.6025 1.05477 13.4479 1.05805 13.2949C1.05805 13.2262 1.07607 13.1626 1.10556 13.1059C1.13341 13.0526 1.17437 13.0062 1.22515 12.9719C1.22679 12.9719 1.22679 12.9702 1.22679 12.9702C1.31034 12.9169 1.44631 12.8774 1.6642 12.9169C1.28249 12.6471 0.995798 12.8 0.874569 13.0904C0.741872 13.4066 0.967949 13.972 1.11867 14.2332C1.85751 15.5185 2.76017 16.0323 2.76017 16.0323C2.80441 16.0615 2.85355 16.0701 2.87649 16.0461Z" fill="url(#paint11_linear_3518_3946)"/>
<path id="Vector_17" d="M3.98362 15.1354C3.70675 14.7505 2.59603 13.5287 2.62388 12.7296C2.63207 12.4736 3.02197 12.2107 3.41187 12.4495C3.41679 12.453 3.12682 12.1059 2.76313 12.2416C2.44695 12.3585 2.40108 12.6643 2.39781 12.7193C2.38142 12.8929 2.42729 13.0596 2.47153 13.1867C2.56327 13.4273 2.67958 13.661 2.84668 13.9411C2.97119 14.1542 3.11699 14.3707 3.30375 14.6267C3.40696 14.7659 3.5118 14.8931 3.61829 15.0134C3.69037 15.0959 3.76409 15.1749 3.83945 15.2522C3.85747 15.2694 3.88041 15.2797 3.90334 15.2797C3.923 15.2797 3.94266 15.2728 3.95904 15.2608C3.99344 15.2299 4.00983 15.1732 3.98362 15.1354Z" fill="url(#paint12_linear_3518_3946)"/>
<path id="Vector_18" d="M6.15906 12.9548C6.04111 12.9548 5.84124 12.9858 5.73476 13.1559C5.52506 13.4858 5.60698 14.1044 5.76752 14.6423C5.79373 14.7299 5.81012 14.8004 5.81995 14.8588C5.8396 14.9653 5.74131 15.0513 5.64629 15.0135C5.24493 14.8554 4.79933 14.3038 4.35373 13.7556C4.33079 13.7264 4.3095 13.6989 4.28656 13.6697C4.29147 13.7487 4.54704 14.1783 4.89598 14.6406C4.98936 14.766 5.61025 15.4757 5.94118 15.2729C6.14595 15.1492 5.81176 14.1869 5.80848 13.9378C5.80684 13.802 5.78882 13.6267 5.82978 13.4652C5.83797 13.424 5.86254 13.381 5.89367 13.338C6.07223 13.0872 6.44247 13.0768 6.59483 13.3466L6.59974 13.3535C6.51783 13.1232 6.41626 12.9548 6.15906 12.9548Z" fill="url(#paint13_linear_3518_3946)"/>
<path id="Vector_19" opacity="0.66" d="M14.5942 13.9066C14.7728 13.3773 14.9005 18.859 14.9005 18.859C14.4222 19.0704 13.9389 19.2559 13.4376 19.3968C13.2394 18.9277 12.9805 18.0634 13.1165 17.0839C13.336 15.5184 14.2256 14.9978 14.5942 13.9066Z" fill="url(#paint14_linear_3518_3946)"/>
<path id="Vector_20" d="M14.4914 13.3517C14.5717 13.1232 14.6732 12.9531 14.9304 12.9531C15.0484 12.9531 15.2483 12.984 15.3547 13.1541C15.5644 13.484 15.4825 14.1027 15.322 14.6405C15.2319 14.9447 15.2564 15.0564 15.2564 15.0564C15.702 15.0271 16.2197 14.3896 16.7358 13.7538C17.052 13.3637 17.2354 13.0046 17.5434 12.6059C17.7302 12.3636 18.0038 12.1196 18.3249 12.2434C19.2046 12.5853 18.1168 13.9136 17.8449 14.2779C17.5352 14.6921 17.2289 15.089 17.2289 15.089C17.5172 15.0186 17.6991 14.9378 18.2069 14.3913C18.641 13.9239 18.9638 13.3208 19.1997 13.0957C19.7354 12.5853 20.063 12.752 20.2056 13.0922C20.3382 13.4084 20.1187 13.9669 19.9696 14.2281C19.2308 15.5134 18.2872 16.0169 18.2872 16.0169C19.0637 15.9808 19.6764 15.1079 19.9238 14.8433C20.6413 14.0786 20.969 15.0254 20.5774 15.7111C20.3972 16.0255 20.217 16.2472 19.8877 16.6029C19.3553 17.1751 18.854 17.4346 18.854 17.4346C18.854 17.4346 19.0686 17.469 19.2849 17.3504C19.5765 17.1906 19.9025 16.95 20.0712 16.8125C20.5545 16.4225 21.0148 16.7576 20.8297 17.2765C20.6151 17.8762 19.832 18.3849 19.3586 18.7543C18.4379 19.4692 17.2895 20.0414 16.1264 20.0019C14.8321 19.9589 13.9409 19.0258 13.5904 17.7147C13.3872 16.9517 13.8721 15.7386 13.995 15.4327C14.398 14.4429 14.4111 13.5803 14.4914 13.3517Z" fill="url(#paint15_radial_3518_3946)"/>
<path id="Vector_21" d="M17.0924 16.419C17.0695 17.859 16.2078 18.4605 15.5394 18.5928C15.808 18.1821 15.9473 17.6803 15.9309 17.1837C15.9145 16.6854 15.731 16.065 15.4591 15.7282C15.1871 15.3914 15.2559 15.0598 15.2559 15.0598C15.2559 15.0598 15.4394 15.0443 15.5082 15.0014C15.7277 14.8604 15.98 14.747 16.1701 14.5632C16.3077 14.4274 17.1153 14.979 17.0924 16.419Z" fill="url(#paint16_radial_3518_3946)"/>
<path id="Vector_22" d="M19.9118 12.8894C20.0461 12.9805 20.1198 13.1369 20.1215 13.2932C20.1264 13.4513 20.0821 13.606 20.0281 13.7538C19.9134 14.051 19.7332 14.3174 19.5481 14.5734C19.358 14.8278 19.1533 15.0735 18.9403 15.3106C18.7273 15.5495 18.5094 15.7849 18.2883 16.0203C18.5619 15.8519 18.8158 15.6491 19.05 15.4258C19.2827 15.2006 19.5038 14.9566 19.6906 14.6851C19.8823 14.4153 20.0346 14.1146 20.1346 13.7916C20.1804 13.63 20.2132 13.4565 20.1853 13.2846C20.164 13.1145 20.0608 12.9513 19.9118 12.8894Z" fill="url(#paint17_linear_3518_3946)"/>
<path id="Vector_23" d="M20.8805 17.0811C20.8735 17.0157 20.8642 16.9596 20.8525 16.9105C20.8665 16.9643 20.8782 17.0204 20.8805 17.0811Z" fill="url(#paint18_radial_3518_3946)"/>
<path id="Vector_24" d="M20.2546 17.7422C20.3726 17.6237 20.4528 17.524 20.5134 17.4192C20.5823 17.2989 20.6216 17.1717 20.6248 17.0532C20.6281 16.9208 20.6167 16.8229 20.4971 16.7267C20.4381 16.6785 20.2726 16.6957 20.2759 16.694C20.2775 16.6923 20.2808 16.6923 20.2825 16.6906C20.3824 16.6493 20.4758 16.639 20.5593 16.6528C20.5593 16.6528 20.5593 16.6528 20.5577 16.6511L20.5593 16.6528C20.7002 16.6768 20.8083 16.7713 20.8509 16.9105C20.8591 16.9466 20.8657 16.9879 20.8706 17.036C20.8722 17.1099 20.8608 17.1923 20.8296 17.28C20.7821 17.4123 20.7051 17.5412 20.6117 17.6649C20.556 17.7543 20.4905 17.8385 20.4299 17.9192C20.3332 18.0395 20.2349 18.1581 20.1252 18.2646C19.9106 18.4846 19.673 18.677 19.4207 18.8454C19.2979 18.9245 18.0823 19.7063 17.0175 19.9211C17.0158 19.9177 19.0489 19.0379 20.2546 17.7422Z" fill="url(#paint19_linear_3518_3946)"/>
<path id="Vector_25" d="M18.7894 17.5273C18.8009 17.5273 18.814 17.5256 18.8238 17.5205C19.0826 17.407 19.3398 17.2455 19.6118 17.0256C19.8608 16.8176 20.082 16.5908 20.2687 16.3537C20.3736 16.2265 20.4669 16.0873 20.5423 15.9688L20.5652 15.931C20.6422 15.8055 20.7209 15.6766 20.77 15.5254C20.8339 15.3467 20.8503 15.1628 20.8142 14.9927C20.7733 14.7882 20.6619 14.649 20.5063 14.5786C20.2835 14.4772 20.0345 14.735 20.0492 14.7281C20.2212 14.6473 20.3719 14.692 20.4112 14.7195C20.5013 14.7848 20.5603 14.8982 20.5718 15.0305C20.58 15.1491 20.5538 15.2797 20.4964 15.4068C20.4473 15.5185 20.3785 15.6268 20.272 15.7574C20.1803 15.8811 20.0852 15.9945 19.9919 16.1062C19.7953 16.3382 19.5921 16.5547 19.389 16.7541C19.2137 16.9242 18.9811 17.1459 18.7304 17.3555C18.6944 17.3847 18.6845 17.438 18.7091 17.4792C18.7271 17.5101 18.7583 17.5273 18.7894 17.5273Z" fill="url(#paint20_linear_3518_3946)"/>
<path id="Vector_26" d="M18.2126 16.0462C18.1815 16.0101 18.1881 15.9878 18.2208 15.9534C18.4649 15.6939 18.6779 15.4619 18.8712 15.2454C19.0956 14.9963 19.2922 14.7574 19.4724 14.5168C19.6494 14.2728 19.8296 14.0082 19.941 13.7212C19.9836 13.6044 20.0327 13.4497 20.0294 13.2968C20.0294 13.228 20.0114 13.1645 19.9819 13.1078C19.9541 13.0545 19.9131 13.0081 19.8623 12.9737C19.8607 12.9737 19.8607 12.972 19.8607 12.972C19.7771 12.9187 19.6412 12.8792 19.4233 12.9187C19.805 12.6489 20.0917 12.8019 20.2129 13.0923C20.3456 13.4085 20.1195 13.9738 19.9688 14.235C19.23 15.5204 18.3273 16.0342 18.3273 16.0342C18.2847 16.0617 18.2339 16.0703 18.2126 16.0462Z" fill="url(#paint21_linear_3518_3946)"/>
<path id="Vector_27" d="M17.1059 15.1354C17.3828 14.7505 18.4935 13.5287 18.4656 12.7296C18.4574 12.4736 18.0675 12.2107 17.6776 12.4495C17.6727 12.453 17.9627 12.1059 18.3264 12.2416C18.6426 12.3585 18.6884 12.6643 18.6917 12.7193C18.7081 12.8929 18.6622 13.0596 18.618 13.1867C18.5262 13.4273 18.4099 13.661 18.2428 13.9411C18.1183 14.1542 17.9725 14.3707 17.7858 14.6267C17.6826 14.7659 17.5777 14.8931 17.4712 15.0134C17.3991 15.0959 17.3254 15.1749 17.2501 15.2522C17.232 15.2694 17.2091 15.2797 17.1862 15.2797C17.1665 15.2797 17.1469 15.2728 17.1305 15.2608C17.0944 15.2299 17.078 15.1732 17.1059 15.1354Z" fill="url(#paint22_linear_3518_3946)"/>
<path id="Vector_28" d="M14.9304 12.9548C15.0484 12.9548 15.2482 12.9858 15.3547 13.1559C15.5644 13.4858 15.4825 14.1044 15.322 14.6423C15.2958 14.7299 15.2794 14.8004 15.2695 14.8588C15.2499 14.9653 15.3482 15.0513 15.4432 15.0135C15.8446 14.8554 16.2902 14.3038 16.7358 13.7556C16.7587 13.7264 16.78 13.6989 16.8029 13.6697C16.798 13.7487 16.5425 14.1783 16.1935 14.6406C16.1001 14.766 15.4792 15.4757 15.1483 15.2729C14.9435 15.1492 15.2777 14.1869 15.281 13.9378C15.2827 13.802 15.3007 13.6267 15.2597 13.4652C15.2515 13.424 15.227 13.381 15.1958 13.338C15.0173 13.0872 14.647 13.0768 14.4947 13.3466L14.4897 13.3535C14.5717 13.1232 14.6716 12.9548 14.9304 12.9548Z" fill="url(#paint23_linear_3518_3946)"/>
</g>
<defs>
<radialGradient id="paint0_radial_3518_3946" cx="0" cy="0" r="1" gradientUnits="userSpaceOnUse" gradientTransform="translate(10.5464 10.2019) scale(9.33133 9.78786)">
<stop offset="0.5" stop-color="#FDE030"/>
<stop offset="0.9188" stop-color="#F7C02B"/>
<stop offset="1" stop-color="#F4A223"/>
</radialGradient>
<linearGradient id="paint1_linear_3518_3946" x1="10.5464" y1="19.8077" x2="10.5464" y2="0.596191" gradientUnits="userSpaceOnUse">
<stop offset="0.1579" stop-color="#F4A223"/>
<stop offset="0.333" stop-color="#F7C02B"/>
<stop offset="0.8071" stop-color="#FDE030" stop-opacity="0"/>
</linearGradient>
<radialGradient id="paint2_radial_3518_3946" cx="0" cy="0" r="1" gradientUnits="userSpaceOnUse" gradientTransform="translate(4.98676 10.4093) rotate(-11.1187) scale(2.91068 2.89066)">
<stop stop-color="#ED7770"/>
<stop offset="0.9" stop-color="#ED7770" stop-opacity="0"/>
</radialGradient>
<radialGradient id="paint3_radial_3518_3946" cx="0" cy="0" r="1" gradientUnits="userSpaceOnUse" gradientTransform="translate(16.0016 8.24874) rotate(-11.1187) scale(2.91037 2.89036)">
<stop stop-color="#ED7770"/>
<stop offset="0.9" stop-color="#ED7770" stop-opacity="0"/>
</radialGradient>
<linearGradient id="paint4_linear_3518_3946" x1="7.09814" y1="21.4209" x2="7.09814" y2="16.1124" gradientUnits="userSpaceOnUse">
<stop stop-color="#BF360C"/>
<stop offset="1" stop-color="#BF360C" stop-opacity="0.2"/>
</linearGradient>
<radialGradient id="paint5_radial_3518_3946" cx="0" cy="0" r="1" gradientUnits="userSpaceOnUse" gradientTransform="translate(4.9081 15.5231) scale(6.37335 6.68517)">
<stop offset="0.3302" stop-color="#FFF176"/>
<stop offset="1" stop-color="#FFC400"/>
</radialGradient>
<radialGradient id="paint6_radial_3518_3946" cx="0" cy="0" r="1" gradientUnits="userSpaceOnUse" gradientTransform="translate(6.15454 16.998) rotate(-43.6536) scale(1.96443 1.97374)">
<stop stop-color="#FFC709"/>
<stop offset="1" stop-color="#FFC709" stop-opacity="0"/>
</radialGradient>
<linearGradient id="paint7_linear_3518_3946" x1="3.16057" y1="15.7618" x2="0.984077" y2="13.7212" gradientUnits="userSpaceOnUse">
<stop offset="0.1273" stop-color="#B7537A"/>
<stop offset="1" stop-color="#FFC400"/>
</linearGradient>
<radialGradient id="paint8_radial_3518_3946" cx="0" cy="0" r="1" gradientUnits="userSpaceOnUse" gradientTransform="translate(6.90904 15.0236) scale(9.09183 9.09178)">
<stop offset="0.3302" stop-color="#FFF176"/>
<stop offset="1" stop-color="#FFC400"/>
</radialGradient>
<linearGradient id="paint9_linear_3518_3946" x1="0.216989" y1="18.2843" x2="4.0708" y2="18.2843" gradientUnits="userSpaceOnUse">
<stop offset="0.1273" stop-color="#DA6727"/>
<stop offset="1" stop-color="#FFC400"/>
</linearGradient>
<linearGradient id="paint10_linear_3518_3946" x1="0.254949" y1="16.0403" x2="2.39071" y2="16.0403" gradientUnits="userSpaceOnUse">
<stop offset="0.1273" stop-color="#DA6727"/>
<stop offset="1" stop-color="#FFC400"/>
</linearGradient>
<linearGradient id="paint11_linear_3518_3946" x1="0.795017" y1="14.4176" x2="2.89638" y2="14.4176" gradientUnits="userSpaceOnUse">
<stop offset="0.1273" stop-color="#DA6727"/>
<stop offset="1" stop-color="#FFC400"/>
</linearGradient>
<linearGradient id="paint12_linear_3518_3946" x1="2.3529" y1="13.744" x2="3.99667" y2="13.744" gradientUnits="userSpaceOnUse">
<stop offset="0.1273" stop-color="#DA6727"/>
<stop offset="1" stop-color="#FFC400"/>
</linearGradient>
<linearGradient id="paint13_linear_3518_3946" x1="4.2872" y1="14.1307" x2="6.77818" y2="14.1307" gradientUnits="userSpaceOnUse">
<stop stop-color="#FFC400"/>
<stop offset="0.8727" stop-color="#DA6727"/>
</linearGradient>
<linearGradient id="paint14_linear_3518_3946" x1="13.9899" y1="21.4209" x2="13.9899" y2="16.1124" gradientUnits="userSpaceOnUse">
<stop stop-color="#BF360C"/>
<stop offset="1" stop-color="#BF360C" stop-opacity="0.2"/>
</linearGradient>
<radialGradient id="paint15_radial_3518_3946" cx="0" cy="0" r="1" gradientUnits="userSpaceOnUse" gradientTransform="translate(16.1807 15.5231) rotate(180) scale(6.37335 6.68517)">
<stop offset="0.3302" stop-color="#FFF176"/>
<stop offset="1" stop-color="#FFC400"/>
</radialGradient>
<radialGradient id="paint16_radial_3518_3946" cx="0" cy="0" r="1" gradientUnits="userSpaceOnUse" gradientTransform="translate(14.9395 17.0071) rotate(-136.346) scale(1.96443 1.97374)">
<stop stop-color="#FFC709"/>
<stop offset="1" stop-color="#FFC709" stop-opacity="0"/>
</radialGradient>
<linearGradient id="paint17_linear_3518_3946" x1="17.9279" y1="15.7618" x2="20.1044" y2="13.7212" gradientUnits="userSpaceOnUse">
<stop offset="0.1273" stop-color="#B7537A"/>
<stop offset="1" stop-color="#FFC400"/>
</linearGradient>
<radialGradient id="paint18_radial_3518_3946" cx="0" cy="0" r="1" gradientUnits="userSpaceOnUse" gradientTransform="translate(14.188 15.0236) rotate(180) scale(9.09146 9.09178)">
<stop offset="0.3302" stop-color="#FFF176"/>
<stop offset="1" stop-color="#FFC400"/>
</radialGradient>
<linearGradient id="paint19_linear_3518_3946" x1="20.8718" y1="18.2843" x2="17.018" y2="18.2843" gradientUnits="userSpaceOnUse">
<stop offset="0.1273" stop-color="#DA6727"/>
<stop offset="1" stop-color="#FFC400"/>
</linearGradient>
<linearGradient id="paint20_linear_3518_3946" x1="20.8336" y1="16.0403" x2="18.6979" y2="16.0403" gradientUnits="userSpaceOnUse">
<stop offset="0.1273" stop-color="#DA6727"/>
<stop offset="1" stop-color="#FFC400"/>
</linearGradient>
<linearGradient id="paint21_linear_3518_3946" x1="20.2936" y1="14.4177" x2="18.1923" y2="14.4177" gradientUnits="userSpaceOnUse">
<stop offset="0.1273" stop-color="#DA6727"/>
<stop offset="1" stop-color="#FFC400"/>
</linearGradient>
<linearGradient id="paint22_linear_3518_3946" x1="18.7361" y1="13.744" x2="17.0924" y2="13.744" gradientUnits="userSpaceOnUse">
<stop offset="0.1273" stop-color="#DA6727"/>
<stop offset="1" stop-color="#FFC400"/>
</linearGradient>
<linearGradient id="paint23_linear_3518_3946" x1="16.8018" y1="14.1307" x2="14.3108" y2="14.1307" gradientUnits="userSpaceOnUse">
<stop stop-color="#FFC400"/>
<stop offset="0.8727" stop-color="#DA6727"/>
</linearGradient>
</defs>
</svg>
