<svg width="21" height="20" viewBox="0 0 21 20" fill="none" xmlns="http://www.w3.org/2000/svg">
<g id="&#240;&#159;&#166;&#134; emoji &#34;pouting face&#34;">
<path id="Vector" d="M10.5772 19.0938C5.96107 19.0938 0.980957 16.1983 0.980957 9.84497C0.980957 3.49161 5.96107 0.596191 10.5772 0.596191C13.1417 0.596191 15.5077 1.44 17.2615 2.9787C19.1642 4.66632 20.1734 7.04883 20.1734 9.84497C20.1734 12.6411 19.1642 15.0071 17.2615 16.6947C15.5077 18.2334 13.1252 19.0938 10.5772 19.0938Z" fill="url(#paint0_radial_3518_4110)"/>
<path id="Vector_2" d="M18.5007 4.34695C19.3826 5.76984 19.8426 7.46408 19.8426 9.34858C19.8426 12.1447 18.8333 14.5107 16.9306 16.1983C15.1768 17.737 12.7943 18.5974 10.2463 18.5974C7.25826 18.5974 4.1246 17.3813 2.27484 14.8019C4.05511 17.7238 7.40386 19.0937 10.5772 19.0937C13.1252 19.0937 15.5077 18.2334 17.2615 16.6947C19.1642 15.007 20.1735 12.6411 20.1735 9.84493C20.1735 7.73707 19.5993 5.86415 18.5007 4.34695Z" fill="#D84213"/>
<g id="Group">
<path id="Vector_3" d="M13.9423 16.5028C13.8861 16.4813 13.8348 16.4465 13.7951 16.4002C12.1852 14.7275 9.52309 14.6762 7.85037 16.2861C7.81231 16.3241 7.77261 16.3622 7.73621 16.4002C7.6965 16.4465 7.64521 16.4813 7.58895 16.5028C7.46486 16.5491 7.32423 16.5227 7.22496 16.435C7.12734 16.3489 7.09425 16.2116 7.14389 16.0908C7.63693 14.8251 9.10284 13.8324 10.7656 13.8324C12.4284 13.8324 13.8943 14.8251 14.3874 16.0892C14.437 16.2099 14.4039 16.3473 14.3063 16.4333C14.207 16.521 14.0664 16.5475 13.9423 16.5028Z" fill="#422B0D"/>
<path id="Vector_4" d="M9.67391 10.8245C9.3033 10.3579 7.77617 9.46116 7.22522 9.19974C7.02005 9.10543 6.80662 9.02933 6.58822 8.97307C6.54852 8.96149 6.5055 8.95653 6.46414 8.95653C6.24408 8.96149 6.05547 9.11867 6.0108 9.33541C5.95951 9.56043 6.07532 9.79206 6.2871 9.88472C6.54686 10.0121 7.0002 10.2537 7.47009 10.5201C7.07796 10.7533 6.83806 11.1769 6.83806 11.6335V11.8751C6.83806 12.5601 7.39398 13.116 8.07895 13.116C8.76392 13.116 9.31984 12.5601 9.31984 11.8751V11.6335C9.31984 11.6236 9.31984 11.6153 9.31984 11.6054C9.49688 11.5938 9.65571 11.4879 9.73347 11.3291C9.81454 11.1637 9.79138 10.9668 9.67391 10.8245Z" fill="#422B0D"/>
<path id="Vector_5" d="M15.5274 9.3354C15.4811 9.117 15.2891 8.96148 15.0658 8.95982C15.0244 8.95982 14.9814 8.96479 14.9417 8.97637C14.7233 9.03097 14.5099 9.10708 14.3047 9.19973C13.7537 9.45784 12.2266 10.3579 11.856 10.8212C11.7385 10.9651 11.7187 11.1636 11.8014 11.3291C11.8808 11.4896 12.038 11.5938 12.2167 11.6054V11.6335V11.8751C12.2167 12.5601 12.7726 13.116 13.4576 13.116C14.1426 13.116 14.6985 12.5601 14.6985 11.8751V11.6335C14.6985 11.1785 14.4586 10.7566 14.0681 10.5233C14.538 10.257 14.9913 10.0154 15.2511 9.88801C15.4645 9.79536 15.582 9.56207 15.5274 9.3354Z" fill="#422B0D"/>
</g>
<path id="Vector_6" d="M8.01585 10.7633C7.7809 10.6508 7.49798 10.7501 7.38382 10.985C7.29613 11.1686 7.33584 11.3887 7.48309 11.531C7.71803 11.6435 8.00096 11.5442 8.11512 11.3093C8.20281 11.1256 8.1631 10.9056 8.01585 10.7633Z" fill="#896024"/>
<path id="Vector_7" d="M13.395 10.7633C13.1601 10.6508 12.8771 10.7501 12.763 10.985C12.6753 11.1686 12.715 11.3887 12.8622 11.531C13.0972 11.6435 13.3801 11.5442 13.4943 11.3093C13.582 11.1256 13.5423 10.9056 13.395 10.7633Z" fill="#896024"/>
</g>
<defs>
<radialGradient id="paint0_radial_3518_4110" cx="0" cy="0" r="1" gradientUnits="userSpaceOnUse" gradientTransform="translate(10.5772 9.84496) scale(9.42411)">
<stop offset="0.12" stop-color="#FAC742"/>
<stop offset="0.32" stop-color="#FAC440"/>
<stop offset="0.48" stop-color="#FBBA3B"/>
<stop offset="0.62" stop-color="#FBA931"/>
<stop offset="0.76" stop-color="#FC9224"/>
<stop offset="0.88" stop-color="#FE7413"/>
<stop offset="1" stop-color="#FF5100"/>
</radialGradient>
</defs>
</svg>
