<svg width="20" height="20" viewBox="0 0 20 20" fill="none" xmlns="http://www.w3.org/2000/svg">
<g id="&#240;&#159;&#166;&#134; emoji &#34;hushed face&#34;">
<path id="Vector" d="M9.85295 19.0938C5.23683 19.0938 0.256714 16.1983 0.256714 9.84497C0.256714 3.49161 5.23683 0.596191 9.85295 0.596191C12.4175 0.596191 14.7834 1.44 16.5372 2.9787C18.4399 4.66632 19.4492 7.04883 19.4492 9.84497C19.4492 12.6411 18.4399 15.0071 16.5372 16.6947C14.7834 18.2334 12.4009 19.0938 9.85295 19.0938Z" fill="url(#paint0_radial_3518_4119)"/>
<path id="Vector_2" d="M17.7767 4.34695C18.6586 5.76984 19.1186 7.46408 19.1186 9.34858C19.1186 12.1447 18.1093 14.5107 16.2066 16.1983C14.4528 17.737 12.0703 18.5974 9.52233 18.5974C6.53427 18.5974 3.4006 17.3813 1.55084 14.8019C3.33111 17.7238 6.67986 19.0937 9.85324 19.0937C12.4012 19.0937 14.7837 18.2334 16.5375 16.6947C18.4402 15.007 19.4495 12.6411 19.4495 9.84493C19.4495 7.73707 18.8754 5.86415 17.7767 4.34695Z" fill="#EB8F00"/>
<path id="Vector_3" d="M12.1694 14.7258C12.1694 15.8956 11.2213 16.8436 10.0516 16.8436C8.88182 16.8436 7.93378 15.8956 7.93378 14.7258C7.93378 13.5561 8.88182 12.608 10.0516 12.608C11.218 12.6047 12.166 13.5461 12.1694 14.7126V14.7258Z" fill="#422B0D"/>
<path id="Vector_4" d="M6.39039 7.20433C5.69715 7.20433 5.06677 7.79003 5.06677 8.76289C5.06677 9.73575 5.69715 10.3198 6.39039 10.3198C7.08364 10.3198 7.71401 9.7341 7.71401 8.76289C7.71401 7.79169 7.08364 7.20433 6.39039 7.20433Z" fill="#422B0D"/>
<path id="Vector_5" d="M6.32554 7.85453C6.0906 7.74203 5.80767 7.8413 5.69351 8.07624C5.60582 8.25989 5.64553 8.47994 5.79278 8.62223C6.02773 8.73474 6.31065 8.63547 6.42481 8.40053C6.5125 8.21687 6.47279 7.99682 6.32554 7.85453Z" fill="#896024"/>
<path id="Vector_6" d="M13.5592 7.20433C12.866 7.20433 12.2356 7.79003 12.2356 8.76289C12.2356 9.73575 12.866 10.3198 13.5592 10.3198C14.2525 10.3198 14.8828 9.7341 14.8828 8.76289C14.8828 7.79169 14.2558 7.20433 13.5592 7.20433Z" fill="#422B0D"/>
<path id="Vector_7" d="M13.4981 7.85453C13.2631 7.74203 12.9802 7.8413 12.8661 8.07624C12.7784 8.25989 12.8181 8.47994 12.9653 8.62223C13.2003 8.73474 13.4832 8.63547 13.5974 8.40053C13.685 8.21687 13.6453 7.99682 13.4981 7.85453Z" fill="#896024"/>
<g id="Group">
<path id="Vector_8" d="M4.0787 5.72518C3.96288 5.84596 3.7693 5.85092 3.64852 5.73345C3.53932 5.62922 3.52443 5.4588 3.61212 5.33637C3.79908 5.06668 4.02906 4.83174 4.29378 4.63816C4.98703 4.10375 5.85565 3.85061 6.72759 3.93002C7.13956 3.98131 7.05849 4.50745 6.69284 4.5422C5.71006 4.61996 4.78518 5.03855 4.0787 5.72518Z" fill="#422B0D"/>
<path id="Vector_9" d="M15.8374 5.76323C15.9532 5.88401 16.1468 5.88897 16.2676 5.7715C16.3768 5.66726 16.3917 5.49685 16.304 5.37441C16.1204 5.10803 15.892 4.87475 15.6306 4.68448C14.9374 4.15007 14.0687 3.89692 13.1968 3.978C12.7865 4.02929 12.8659 4.55377 13.2316 4.58851C14.211 4.66628 15.1309 5.08156 15.8374 5.76323Z" fill="#422B0D"/>
</g>
</g>
<defs>
<radialGradient id="paint0_radial_3518_4119" cx="0" cy="0" r="1" gradientUnits="userSpaceOnUse" gradientTransform="translate(9.85295 9.84497) scale(9.42411)">
<stop offset="0.5" stop-color="#FDE030"/>
<stop offset="0.92" stop-color="#F7C02B"/>
<stop offset="1" stop-color="#F4A223"/>
</radialGradient>
</defs>
</svg>
