<svg width="22" height="20" viewBox="0 0 22 20" fill="none" xmlns="http://www.w3.org/2000/svg">
<g id="&#240;&#159;&#166;&#134; emoji &#34;face with tears of joy&#34;">
<path id="Vector" d="M11.2252 19.1075C6.6057 19.1075 1.62189 16.2099 1.62189 9.85184C1.62189 3.49376 6.6057 0.596191 11.2252 0.596191C13.7917 0.596191 16.1594 1.44062 17.9145 2.98047C19.8186 4.66934 20.8286 7.05362 20.8286 9.85184C20.8286 12.6501 19.8186 15.0178 17.9145 16.7067C16.1594 18.2465 13.7751 19.1075 11.2252 19.1075Z" fill="url(#paint0_radial_3518_4025)"/>
<path id="Vector_2" d="M19.1547 4.34979C20.0372 5.77374 20.4975 7.46923 20.4975 9.35513C20.4975 12.1534 19.4875 14.5211 17.5834 16.2099C15.8283 17.7498 13.444 18.6108 10.8942 18.6108C7.90387 18.6108 4.76788 17.3938 2.91675 14.8125C4.69834 17.7365 8.04958 19.1075 11.2253 19.1075C13.7752 19.1075 16.1595 18.2465 17.9145 16.7067C19.8187 15.0178 20.8287 12.6501 20.8287 9.85186C20.8287 7.74243 20.2541 5.86812 19.1547 4.34979Z" fill="#EB8F00"/>
<g id="Group">
<path id="Vector_3" d="M7.22485 4.60455C7.152 4.42904 6.95331 4.33963 6.77449 4.40421C6.50626 4.49196 6.24796 4.60621 6.00125 4.74364C5.34558 5.10459 4.78428 5.61622 4.36372 6.23381C4.24781 6.39111 4.27762 6.61133 4.4316 6.73054C4.51273 6.79842 4.6187 6.83154 4.72467 6.81829C4.80415 6.8067 4.877 6.76862 4.93329 6.71067C5.5691 6.08811 6.28108 5.54833 7.051 5.10459L7.06921 5.09466C7.24472 5.00028 7.31427 4.78337 7.22485 4.60455Z" fill="#422B0D"/>
<path id="Vector_4" d="M15.7105 4.43924C15.7834 4.26373 15.9821 4.17432 16.1609 4.23889C16.4275 4.32499 16.6858 4.43593 16.9325 4.57004C17.5882 4.931 18.1495 5.44097 18.5717 6.06022C18.6859 6.21752 18.6561 6.43608 18.5038 6.55695C18.4227 6.62483 18.3167 6.65629 18.2107 6.6447C18.1312 6.63311 18.0584 6.59503 18.0021 6.53708C17.3663 5.91452 16.6543 5.37474 15.8844 4.931L15.8662 4.92106C15.6956 4.82669 15.6261 4.61641 15.7105 4.43924Z" fill="#422B0D"/>
<path id="Vector_5" d="M17.5948 11.2958C17.363 10.8769 16.8596 10.6931 16.4126 10.862C14.7138 11.3571 12.952 11.6038 11.182 11.5955C9.41204 11.6038 7.65032 11.3571 5.95152 10.862C5.50612 10.6931 5.00278 10.8753 4.77097 11.2925C4.54579 11.7081 4.70805 12.1899 4.89846 12.6055C5.96146 14.9401 8.30434 16.3376 11.1688 16.3459H11.1953C14.0597 16.3459 16.4026 14.9401 17.4673 12.6055C17.656 12.1866 17.82 11.7114 17.5948 11.2958Z" fill="#422B0D"/>
</g>
<path id="Vector_6" d="M13.8328 15.6867C13.7715 15.6304 13.7086 15.5791 13.6457 15.5212C12.9701 14.9267 12.0959 14.6072 11.1951 14.6254C10.2679 14.6105 9.36553 14.9185 8.64197 15.498C8.57905 15.5493 8.51282 15.599 8.45156 15.6636C8.3903 15.7281 8.35718 15.7745 8.31744 15.8291C9.22811 16.1851 10.1984 16.3673 11.1769 16.3623H11.2034C12.1406 16.3623 13.0695 16.1951 13.947 15.8656C13.9139 15.8026 13.8758 15.743 13.8328 15.6867Z" fill="#ED7770"/>
<path id="Vector_7" d="M16.4128 10.8619C14.714 11.357 12.9523 11.6037 11.1823 11.5954C9.41231 11.6037 7.65059 11.357 5.95178 10.8619C5.50639 10.693 5.00304 10.8751 4.77123 11.2924C4.73812 11.3553 4.71163 11.4215 4.69507 11.4894C4.74971 11.5176 4.81263 11.5457 4.88714 11.5755C6.88066 12.5739 9.08447 13.0806 11.3131 13.0541C13.4507 13.079 15.5634 12.6137 17.494 11.6964C17.5719 11.6633 17.6364 11.6318 17.6944 11.602C17.6811 11.4944 17.6464 11.3884 17.595 11.2924C17.3632 10.8751 16.8599 10.6914 16.4128 10.8619Z" fill="white"/>
<path id="Vector_8" d="M17.6015 11.2974C17.3663 10.8785 16.8613 10.693 16.411 10.8619C14.7122 11.357 12.9504 11.6037 11.1821 11.5954C9.4121 11.6037 7.65038 11.357 5.95158 10.8619C5.50619 10.693 5.00284 10.8751 4.77103 11.2924C4.54585 11.708 4.70811 12.1898 4.89852 12.6054C4.98297 12.7925 5.07735 12.9763 5.18166 13.1535C5.18166 13.1535 4.83395 11.8653 5.1353 11.4911C5.23795 11.3321 5.41015 11.2328 5.59891 11.2229C5.67673 11.2229 5.75289 11.2361 5.8274 11.2593C7.55601 11.7676 9.34918 12.0242 11.1523 12.0209H11.2102C13.0134 12.0242 14.8065 11.7676 16.5351 11.2593C16.6097 11.2361 16.6858 11.2229 16.7636 11.2229C16.9524 11.2328 17.1263 11.3321 17.2289 11.4911C17.5352 11.8653 17.1825 13.1584 17.1825 13.1584C17.2852 12.9813 17.3879 12.7991 17.474 12.6104C17.6627 12.1948 17.8266 11.7146 17.6015 11.2974Z" fill="#EB8F00"/>
<path id="Vector_9" d="M17.3663 8.88983C17.3663 8.88983 20.1811 8.96765 21.3053 11.0423C21.7755 11.9132 21.802 13.3604 20.8284 13.8885C19.6512 14.5359 18.5468 13.617 18.4061 12.6368C18.0269 9.97766 17.3663 8.88983 17.3663 8.88983Z" fill="#29B6F6"/>
<path id="Vector_10" d="M21.1035 12.8934C20.9926 13.0954 20.7492 13.1832 20.5356 13.0988C20.3452 12.9978 20.2938 12.7544 20.264 12.5408L20.173 11.8785C20.1349 11.6152 19.8667 10.7625 20.1481 10.6234C20.3717 10.5141 20.8005 10.8155 20.9263 10.9893C21.2028 11.3834 21.3336 12.506 21.1035 12.8934Z" fill="#81D4FA"/>
<path id="Vector_11" d="M20.1481 10.6317C20.3716 10.5224 20.8004 10.8238 20.9263 10.9976C21.2028 11.3834 21.3336 12.506 21.1034 12.8935C20.9925 13.0955 20.7491 13.1832 20.5355 13.0988C20.3451 12.9978 20.2938 12.7544 20.264 12.5408L20.1729 11.8785" fill="#81D4FA"/>
<path id="Vector_12" d="M5.21639 8.88983C5.21639 8.88983 2.40161 8.96765 1.27736 11.0423C0.807126 11.905 0.788912 13.3455 1.75422 13.8803C2.93146 14.5277 4.03584 13.6087 4.17658 12.6285C4.55575 9.97766 5.21639 8.88983 5.21639 8.88983Z" fill="#29B6F6"/>
<path id="Vector_13" d="M1.47954 12.8934C1.59048 13.0954 1.83387 13.1832 2.04746 13.0988C2.23788 12.9978 2.2892 12.7544 2.31901 12.5408L2.41007 11.8785C2.44816 11.6152 2.71639 10.7625 2.43491 10.6234C2.21138 10.5141 1.78254 10.8155 1.65671 10.9893C1.3802 11.3834 1.24939 12.506 1.47954 12.8934Z" fill="#81D4FA"/>
<path id="Vector_14" d="M8.66687 8.68779L8.64203 8.65136L8.60726 8.60666C8.59402 8.58844 8.58077 8.57354 8.56421 8.55864L8.46321 8.45598C8.42016 8.41293 8.37214 8.36988 8.31916 8.32518C8.20988 8.2308 8.08735 8.15464 7.95489 8.09503C7.8274 8.03873 7.68832 8.00893 7.54924 8.00893H7.57738H7.48301C7.46645 8.00727 7.45155 8.00727 7.43499 8.00893C7.40518 8.01224 7.37538 8.01721 7.34558 8.02383C7.27769 8.04039 7.20981 8.06191 7.14523 8.0884C7.01277 8.14636 6.89025 8.22418 6.78097 8.31855C6.69156 8.39306 6.60711 8.4742 6.52929 8.56195L6.43491 8.66792L6.38524 8.72421C6.1849 8.95271 5.83884 8.97589 5.61035 8.7772C5.43981 8.62818 5.37854 8.3881 5.45471 8.1745L5.47292 8.12152C5.48782 8.08675 5.50107 8.03377 5.53253 7.97085C5.60869 7.79203 5.70804 7.62148 5.82725 7.4675C6.11701 7.08502 6.52432 6.80685 6.98628 6.67439C7.08066 6.64956 7.17669 6.63134 7.27438 6.6181C7.32405 6.6181 7.39691 6.6032 7.41843 6.6032H7.54427C7.73137 6.60651 7.91847 6.633 8.1006 6.67936C8.27445 6.72738 8.44003 6.79692 8.59733 6.88633C8.85397 7.037 9.07915 7.23569 9.25963 7.47246C9.38215 7.63307 9.48647 7.80693 9.5676 7.99237C9.58084 8.01886 9.59243 8.04536 9.59906 8.0735C9.60734 8.09503 9.6123 8.11324 9.61727 8.12814L9.63217 8.17285C9.72655 8.46592 9.56594 8.78051 9.27287 8.87489C9.05266 8.94608 8.80926 8.87323 8.66521 8.69275L8.66687 8.68779Z" fill="#422B0D"/>
<path id="Vector_15" d="M16.1727 8.68779L16.1429 8.65136L16.1082 8.60666C16.0949 8.58844 16.0817 8.57354 16.0651 8.55864L15.9624 8.45598C15.9177 8.40962 15.8697 8.36657 15.8201 8.32518C15.7108 8.2308 15.5882 8.15464 15.4558 8.09503C15.3283 8.03873 15.1892 8.00893 15.0501 8.00893H15.0783H14.9822C14.9657 8.00727 14.9508 8.00727 14.9342 8.00893C14.9044 8.01224 14.8746 8.01721 14.8448 8.02383C14.7769 8.04039 14.709 8.06191 14.6445 8.08841C14.5104 8.14967 14.3845 8.22914 14.2719 8.32518C14.1825 8.40134 14.0997 8.48247 14.0219 8.56857L13.9275 8.67454L13.8779 8.73084C13.6775 8.95933 13.3315 8.98251 13.103 8.78382C12.9324 8.6348 12.8712 8.39472 12.9473 8.18113L12.9655 8.12814C12.9804 8.09337 12.9937 8.04039 13.0235 7.97747C13.103 7.79534 13.204 7.62479 13.3265 7.4675C13.6162 7.08502 14.0236 6.80685 14.4855 6.67439C14.5799 6.64956 14.6759 6.63134 14.7736 6.6181C14.8233 6.6181 14.8961 6.6032 14.9177 6.6032H15.0435C15.2306 6.60651 15.4177 6.633 15.5998 6.67936C15.772 6.72903 15.9376 6.79857 16.0933 6.88798C16.3499 7.037 16.5751 7.23735 16.7556 7.47412C16.8251 7.56353 16.8864 7.65791 16.9427 7.7556C16.9874 7.83342 17.0271 7.9129 17.0635 7.99403C17.0768 8.02052 17.0867 8.04701 17.095 8.07516C17.095 8.09668 17.1082 8.1149 17.1132 8.1298L17.1281 8.1745C17.2225 8.46757 17.0619 8.78216 16.7688 8.87654C16.5486 8.94774 16.3052 8.87489 16.1611 8.69441L16.1727 8.68779Z" fill="#422B0D"/>
</g>
<defs>
<radialGradient id="paint0_radial_3518_4025" cx="0" cy="0" r="1" gradientUnits="userSpaceOnUse" gradientTransform="translate(11.2252 9.85184) scale(9.43111 9.43111)">
<stop offset="0.5" stop-color="#FDE030"/>
<stop offset="0.92" stop-color="#F7C02B"/>
<stop offset="1" stop-color="#F4A223"/>
</radialGradient>
</defs>
</svg>
