<svg width="36" height="36" viewBox="0 0 36 36" fill="none" xmlns="http://www.w3.org/2000/svg">
<path d="M31.7147 10.2857H12.8576M9.42899 10.2857H4.28613M31.7147 27.4286H12.8576M9.42899 27.4286H4.28613M23.1433 18.8571H4.28613M31.7147 18.8571H26.5718M11.1433 6.85715C11.5979 6.85715 12.034 7.03776 12.3555 7.35925C12.6769 7.68074 12.8576 8.11678 12.8576 8.57143V12C12.8576 12.4547 12.6769 12.8907 12.3555 13.2122C12.034 13.5337 11.5979 13.7143 11.1433 13.7143C10.6886 13.7143 10.2526 13.5337 9.93109 13.2122C9.6096 12.8907 9.42899 12.4547 9.42899 12V8.57143C9.42899 8.11678 9.6096 7.68074 9.93109 7.35925C10.2526 7.03776 10.6886 6.85715 11.1433 6.85715ZM11.1433 24C11.5979 24 12.034 24.1806 12.3555 24.5021C12.6769 24.8236 12.8576 25.2596 12.8576 25.7143V29.1429C12.8576 29.5975 12.6769 30.0336 12.3555 30.355C12.034 30.6765 11.5979 30.8571 11.1433 30.8571C10.6886 30.8571 10.2526 30.6765 9.93109 30.355C9.6096 30.0336 9.42899 29.5975 9.42899 29.1429V25.7143C9.42899 25.2596 9.6096 24.8236 9.93109 24.5021C10.2526 24.1806 10.6886 24 11.1433 24ZM24.8576 15.4286C25.3122 15.4286 25.7483 15.6092 26.0697 15.9307C26.3912 16.2522 26.5718 16.6882 26.5718 17.1429V20.5714C26.5718 21.0261 26.3912 21.4621 26.0697 21.7836C25.7483 22.1051 25.3122 22.2857 24.8576 22.2857C24.4029 22.2857 23.9669 22.1051 23.6454 21.7836C23.3239 21.4621 23.1433 21.0261 23.1433 20.5714V17.1429C23.1433 16.6882 23.3239 16.2522 23.6454 15.9307C23.9669 15.6092 24.4029 15.4286 24.8576 15.4286Z" stroke="black" stroke-width="0.761905" stroke-linecap="round" stroke-linejoin="round"/>
</svg>
