<svg width="19" height="18" viewBox="0 0 19 18" fill="none" xmlns="http://www.w3.org/2000/svg">
<rect x="0.5" width="18" height="18" rx="9" fill="#4F0DA3"/>
<path d="M13.635 11.1325L13.9875 9.0925C14.0082 8.97294 14.0025 8.8503 13.9708 8.73316C13.9392 8.61602 13.8823 8.50721 13.8042 8.41434C13.7261 8.32148 13.6286 8.24679 13.5187 8.19552C13.4087 8.14425 13.2888 8.11762 13.1675 8.1175H10.577C10.5165 8.11752 10.4568 8.10437 10.4019 8.07897C10.3471 8.05357 10.2984 8.01654 10.2593 7.97044C10.2202 7.92433 10.1916 7.87027 10.1755 7.812C10.1593 7.75373 10.1561 7.69265 10.166 7.633L10.4975 5.6105C10.5513 5.28212 10.5359 4.94613 10.4525 4.624C10.4168 4.4909 10.348 4.36899 10.2525 4.2696C10.1571 4.17021 10.038 4.09656 9.90648 4.0555L9.83398 4.032C9.67006 3.97935 9.4922 3.99152 9.33698 4.066C9.16698 4.148 9.04298 4.2975 8.99698 4.475L8.75898 5.392C8.68321 5.68382 8.57311 5.96562 8.43098 6.2315C8.22348 6.62 7.90248 6.9315 7.56848 7.219L6.84898 7.839C6.74916 7.92526 6.67121 8.03394 6.62149 8.15613C6.57178 8.27833 6.55173 8.41056 6.56298 8.542L6.96898 13.2385C6.98687 13.4462 7.082 13.6397 7.23557 13.7806C7.38915 13.9216 7.59 13.9999 7.79848 14H10.1225C11.8635 14 13.349 12.787 13.635 11.1325Z" fill="#F5F5F5"/>
<path fill-rule="evenodd" clip-rule="evenodd" d="M4.98404 7.74252C5.08067 7.73829 5.17519 7.77157 5.24787 7.83539C5.32054 7.89921 5.36575 7.98865 5.37404 8.08502L5.85904 13.703C5.86725 13.7867 5.85833 13.8711 5.83281 13.9512C5.80729 14.0313 5.76571 14.1054 5.71061 14.1689C5.65551 14.2324 5.58805 14.2839 5.51234 14.3205C5.43663 14.357 5.35427 14.3777 5.27029 14.3814C5.18631 14.385 5.10246 14.3715 5.02388 14.3417C4.94529 14.3118 4.87362 14.2663 4.81323 14.2078C4.75284 14.1493 4.70501 14.0791 4.67265 14.0015C4.6403 13.9239 4.62409 13.8406 4.62504 13.7565V8.11702C4.62508 8.02036 4.66244 7.92745 4.72933 7.85767C4.79622 7.78789 4.88747 7.74664 4.98404 7.74252Z" fill="#F5F5F5"/>
</svg>
