<svg width="25" height="24" viewBox="0 0 25 24" fill="none" xmlns="http://www.w3.org/2000/svg">
<path d="M12.175 2.13199L11.849 1.45699L12.174 2.13199H12.175ZM3.5 10.234L4.247 10.17C4.22978 9.9779 4.13924 9.79983 3.99416 9.67276C3.84909 9.54568 3.66064 9.47938 3.46796 9.48762C3.27528 9.49586 3.09318 9.578 2.95948 9.71699C2.82578 9.85598 2.75076 10.0411 2.75 10.234H3.5ZM20.736 12.057L20.03 16.137L21.509 16.393L22.214 12.313L20.736 12.057ZM13.745 21.25H9.096V22.75H13.745V21.25ZM8.185 20.413L7.373 11.02L5.878 11.149L6.691 20.542L8.185 20.413ZM20.03 16.137C19.523 19.067 16.881 21.25 13.745 21.25V22.75C17.571 22.75 20.871 20.081 21.509 16.393L20.03 16.137ZM13.755 5.09999L13.092 9.14499L14.572 9.38699L15.235 5.34299L13.755 5.09999ZM7.688 10.246L9.127 9.00598L8.147 7.86999L6.71 9.10998L7.688 10.246ZM11.744 4.97199L12.22 3.13799L10.768 2.76199L10.292 4.59499L11.744 4.97199ZM12.938 2.77799L13.083 2.82499L13.542 1.39699L13.397 1.34999L12.938 2.77799ZM11.023 6.81599C11.3354 6.23198 11.5774 5.61299 11.744 4.97199L10.292 4.59499C10.1553 5.12162 9.95656 5.63018 9.7 6.10999L11.024 6.81599H11.023ZM13.083 2.82499C13.2257 2.86823 13.3551 2.94682 13.4593 3.05346C13.5635 3.1601 13.6391 3.29134 13.679 3.43499L15.131 3.05899C15.0277 2.67049 14.8278 2.31442 14.55 2.02385C14.2722 1.73328 13.9255 1.51765 13.542 1.39699L13.083 2.82499ZM12.22 3.13799C12.2399 3.06596 12.2753 2.99913 12.3237 2.94215C12.372 2.88516 12.4322 2.83938 12.5 2.80799L11.849 1.45699C11.317 1.71299 10.917 2.18699 10.768 2.76199L12.22 3.13799ZM12.5 2.80799C12.6369 2.74262 12.7935 2.73189 12.938 2.77799L13.397 1.34999C12.8863 1.18631 12.3323 1.2246 11.849 1.45699L12.499 2.80799H12.5ZM14.654 10.984H19.834V9.48399H14.654V10.984ZM5.219 21.406L4.247 10.17L2.753 10.299L3.723 21.535L5.219 21.406ZM4.25 21.513V10.234H2.75V21.513H4.25ZM3.723 21.535C3.71995 21.4986 3.72549 21.4621 3.73733 21.4276C3.74918 21.3931 3.76807 21.3614 3.7928 21.3346C3.81753 21.3078 3.84757 21.2865 3.881 21.2719C3.91443 21.2573 3.95053 21.2499 3.987 21.25V22.75C4.713 22.75 5.281 22.128 5.219 21.406L3.724 21.536L3.723 21.535ZM15.235 5.34299C15.3597 4.58271 15.3243 3.80477 15.131 3.05899L13.679 3.43599C13.8199 3.97931 13.8458 4.54608 13.755 5.09999L15.235 5.34299ZM9.096 21.25C8.86701 21.2496 8.64648 21.1634 8.47785 21.0085C8.30923 20.8536 8.20475 20.6411 8.185 20.413L6.691 20.542C6.74303 21.1441 7.01888 21.7049 7.46411 22.1137C7.90933 22.5224 8.49159 22.7495 9.096 22.75V21.25ZM9.127 9.00598C9.807 8.41998 10.539 7.72299 11.024 6.81599L9.7 6.10999C9.354 6.75899 8.803 7.30598 8.147 7.86999L9.127 9.00598ZM22.214 12.313C22.2742 11.966 22.2578 11.61 22.166 11.27C22.0741 10.93 21.9091 10.6141 21.6823 10.3446C21.4556 10.0751 21.1727 9.85845 20.8534 9.70978C20.5341 9.56112 20.1862 9.48405 19.834 9.48399V10.984C20.401 10.984 20.834 11.496 20.736 12.057L22.214 12.313ZM3.987 21.25C4.133 21.25 4.25 21.368 4.25 21.513H2.75C2.75 22.195 3.303 22.75 3.987 22.75V21.25ZM13.092 9.14499C13.0547 9.37156 13.0672 9.60354 13.1285 9.82483C13.1899 10.0461 13.2986 10.2514 13.4472 10.4265C13.5958 10.6015 13.7807 10.7421 13.9891 10.8386C14.1975 10.935 14.4244 10.984 14.654 10.984V9.48399C14.6418 9.48404 14.6297 9.4824 14.6187 9.47726C14.6076 9.47212 14.5978 9.46461 14.59 9.45525C14.5821 9.44589 14.5765 9.43492 14.5734 9.42312C14.5703 9.41133 14.5698 9.39899 14.572 9.38699L13.092 9.14499ZM7.373 11.02C7.36064 10.8752 7.38184 10.7295 7.43678 10.5949C7.49171 10.4604 7.57782 10.3408 7.688 10.246L6.708 9.10899C6.41802 9.35902 6.19156 9.67434 6.04726 10.029C5.90296 10.3837 5.84495 10.7675 5.878 11.149L7.373 11.019V11.02Z" fill="black"/>
</svg>
