<svg width="29" height="28" viewBox="0 0 29 28" fill="none" xmlns="http://www.w3.org/2000/svg">
<g id="ShareNetwork">
<path id="Vector" d="M7.5 17.5C9.433 17.5 11 15.933 11 14C11 12.067 9.433 10.5 7.5 10.5C5.567 10.5 4 12.067 4 14C4 15.933 5.567 17.5 7.5 17.5Z" stroke="black" stroke-opacity="0.8" stroke-width="1.5" stroke-linecap="round" stroke-linejoin="round"/>
<path id="Vector_2" d="M19.75 25.375C21.683 25.375 23.25 23.808 23.25 21.875C23.25 19.942 21.683 18.375 19.75 18.375C17.817 18.375 16.25 19.942 16.25 21.875C16.25 23.808 17.817 25.375 19.75 25.375Z" stroke="black" stroke-opacity="0.8" stroke-width="1.5" stroke-linecap="round" stroke-linejoin="round"/>
<path id="Vector_3" d="M19.75 9.625C21.683 9.625 23.25 8.058 23.25 6.125C23.25 4.192 21.683 2.625 19.75 2.625C17.817 2.625 16.25 4.192 16.25 6.125C16.25 8.058 17.817 9.625 19.75 9.625Z" stroke="black" stroke-opacity="0.8" stroke-width="1.5" stroke-linecap="round" stroke-linejoin="round"/>
<path id="Vector_4" d="M16.8078 8.01718L10.4421 12.1078" stroke="black" stroke-opacity="0.8" stroke-width="1.5" stroke-linecap="round" stroke-linejoin="round"/>
<path id="Vector_5" d="M10.4421 15.8922L16.8078 19.9828" stroke="black" stroke-opacity="0.8" stroke-width="1.5" stroke-linecap="round" stroke-linejoin="round"/>
</g>
</svg>
