<svg width="25" height="25" viewBox="0 0 25 25" fill="none" xmlns="http://www.w3.org/2000/svg">
<g id="Component 23">
<path id="Vector" d="M11.8084 22.4642L11.4824 23.1392L11.8074 22.4642H11.8084ZM3.13336 14.3622L3.88036 14.4262C3.86315 14.6183 3.7726 14.7963 3.62752 14.9234C3.48245 15.0505 3.294 15.1168 3.10132 15.1086C2.90864 15.1003 2.72654 15.0182 2.59284 14.8792C2.45914 14.7402 2.38412 14.555 2.38336 14.3622H3.13336ZM20.3694 12.5392L19.6634 8.45919L21.1424 8.20319L21.8474 12.2832L20.3694 12.5392ZM13.3784 3.34619H8.72936V1.84619H13.3784V3.34619ZM7.81836 4.18319L7.00636 13.5762L5.51136 13.4472L6.32436 4.05419L7.81836 4.18319ZM19.6634 8.45919C19.1564 5.52919 16.5144 3.34619 13.3784 3.34619V1.84619C17.2044 1.84619 20.5044 4.51519 21.1424 8.20319L19.6634 8.45919ZM13.3884 19.4962L12.7254 15.4512L14.2054 15.2092L14.8684 19.2532L13.3884 19.4962ZM7.32136 14.3502L8.76036 15.5902L7.78036 16.7262L6.34336 15.4862L7.32136 14.3502ZM11.3774 19.6242L11.8534 21.4582L10.4014 21.8342L9.92536 20.0012L11.3774 19.6242ZM12.5714 21.8182L12.7164 21.7712L13.1754 23.1992L13.0304 23.2462L12.5714 21.8182ZM10.6564 17.7802C10.9687 18.3642 11.2108 18.9832 11.3774 19.6242L9.92536 20.0012C9.78865 19.4746 9.58992 18.966 9.33336 18.4862L10.6574 17.7802H10.6564ZM12.7164 21.7712C12.859 21.7279 12.9885 21.6494 13.0927 21.5427C13.1969 21.4361 13.2724 21.3048 13.3124 21.1612L14.7644 21.5372C14.661 21.9257 14.4612 22.2818 14.1834 22.5723C13.9056 22.8629 13.5588 23.0785 13.1754 23.1992L12.7164 21.7712ZM11.8534 21.4582C11.8733 21.5302 11.9087 21.597 11.957 21.654C12.0054 21.711 12.0655 21.7568 12.1334 21.7882L11.4824 23.1392C10.9504 22.8832 10.5504 22.4092 10.4014 21.8342L11.8534 21.4582ZM12.1334 21.7882C12.2702 21.8536 12.4269 21.8643 12.5714 21.8182L13.0304 23.2462C12.5197 23.4099 11.9657 23.3716 11.4824 23.1392L12.1324 21.7882H12.1334ZM14.2874 13.6122H19.4674V15.1122H14.2874V13.6122ZM4.85236 3.19019L3.88036 14.4262L2.38636 14.2972L3.35636 3.06119L4.85236 3.19019ZM3.88336 3.08319V14.3622H2.38336V3.08319H3.88336ZM3.35636 3.06119C3.35331 3.09753 3.35885 3.13411 3.3707 3.16861C3.38254 3.2031 3.40143 3.23475 3.42616 3.26155C3.45089 3.28835 3.48093 3.30972 3.51436 3.32429C3.54779 3.33886 3.58389 3.34632 3.62036 3.34619V1.84619C4.34636 1.84619 4.91436 2.46819 4.85236 3.19019L3.35736 3.06019L3.35636 3.06119ZM14.8684 19.2532C14.9931 20.0135 14.9577 20.7914 14.7644 21.5372L13.3124 21.1602C13.4533 20.6169 13.4792 20.0501 13.3884 19.4962L14.8684 19.2532ZM8.72936 3.34619C8.50037 3.34659 8.27984 3.43274 8.11121 3.58766C7.94259 3.74259 7.83811 3.95506 7.81836 4.18319L6.32436 4.05419C6.3764 3.45203 6.65224 2.89124 7.09747 2.48249C7.54269 2.07373 8.12496 1.8467 8.72936 1.84619V3.34619ZM8.76036 15.5902C9.44036 16.1762 10.1724 16.8732 10.6574 17.7802L9.33336 18.4862C8.98736 17.8372 8.43636 17.2902 7.78036 16.7262L8.76036 15.5902ZM21.8474 12.2832C21.9076 12.6302 21.8912 12.9862 21.7993 13.3262C21.7075 13.6662 21.5424 13.982 21.3157 14.2515C21.089 14.521 20.806 14.7377 20.4868 14.8864C20.1675 15.0351 19.8196 15.1121 19.4674 15.1122V13.6122C20.0344 13.6122 20.4674 13.1002 20.3694 12.5392L21.8474 12.2832ZM3.62036 3.34619C3.76636 3.34619 3.88336 3.22819 3.88336 3.08319H2.38336C2.38336 2.40119 2.93636 1.84619 3.62036 1.84619V3.34619ZM12.7254 15.4512C12.6881 15.2246 12.7005 14.9926 12.7619 14.7714C12.8232 14.5501 12.932 14.3448 13.0806 14.1697C13.2292 13.9947 13.4141 13.854 13.6225 13.7576C13.8309 13.6611 14.0577 13.6122 14.2874 13.6122V15.1122C14.2752 15.1121 14.2631 15.1138 14.252 15.1189C14.241 15.1241 14.2312 15.1316 14.2233 15.1409C14.2155 15.1503 14.2098 15.1613 14.2067 15.1731C14.2036 15.1849 14.2032 15.1972 14.2054 15.2092L12.7254 15.4512ZM7.00636 13.5762C6.994 13.721 7.0152 13.8667 7.07014 14.0013C7.12508 14.1358 7.21118 14.2554 7.32136 14.3502L6.34136 15.4872C6.05138 15.2372 5.82492 14.9218 5.68062 14.5672C5.53632 14.2125 5.47831 13.8287 5.51136 13.4472L7.00636 13.5772V13.5762Z" fill="black"/>
</g>
</svg>
